<svg width="1600" height="520" viewBox="0 0 1600 520" fill="none" xmlns="http://www.w3.org/2000/svg">
  <defs>
    <linearGradient id="bg" x1="140" y1="70" x2="1440" y2="470" gradientUnits="userSpaceOnUse">
      <stop offset="0" stop-color="#040814"/>
      <stop offset="0.42" stop-color="#0A1330"/>
      <stop offset="0.72" stop-color="#101C3F"/>
      <stop offset="1" stop-color="#19112E"/>
    </linearGradient>
    <radialGradient id="nebulaTeal" cx="0" cy="0" r="1" gradientUnits="userSpaceOnUse" gradientTransform="translate(520 196) rotate(11) scale(520 300)">
      <stop offset="0" stop-color="#4CF2E4" stop-opacity="0.55"/>
      <stop offset="0.45" stop-color="#1BC7C3" stop-opacity="0.20"/>
      <stop offset="1" stop-color="#1BC7C3" stop-opacity="0"/>
    </radialGradient>
    <radialGradient id="nebulaOrange" cx="0" cy="0" r="1" gradientUnits="userSpaceOnUse" gradientTransform="translate(1290 202) rotate(160) scale(410 310)">
      <stop offset="0" stop-color="#F6A15F" stop-opacity="0.46"/>
      <stop offset="0.52" stop-color="#F97316" stop-opacity="0.18"/>
      <stop offset="1" stop-color="#F97316" stop-opacity="0"/>
    </radialGradient>
    <radialGradient id="planetFill" cx="0" cy="0" r="1" gradientUnits="userSpaceOnUse" gradientTransform="translate(1188 212) rotate(134) scale(194 188)">
      <stop offset="0" stop-color="#D9FFF8"/>
      <stop offset="0.26" stop-color="#6FEFE3"/>
      <stop offset="0.58" stop-color="#1BA7C9"/>
      <stop offset="0.86" stop-color="#1A3D73"/>
      <stop offset="1" stop-color="#0B1731"/>
    </radialGradient>
    <radialGradient id="planetShadow" cx="0" cy="0" r="1" gradientUnits="userSpaceOnUse" gradientTransform="translate(1252 294) rotate(-148) scale(170 150)">
      <stop offset="0" stop-color="#051022" stop-opacity="0"/>
      <stop offset="1" stop-color="#030814" stop-opacity="0.78"/>
    </radialGradient>
    <linearGradient id="ringGradient" x1="972" y1="246" x2="1394" y2="246" gradientUnits="userSpaceOnUse">
      <stop offset="0" stop-color="#7EF8EB" stop-opacity="0.08"/>
      <stop offset="0.26" stop-color="#CBFFF8" stop-opacity="0.85"/>
      <stop offset="0.64" stop-color="#F4B179" stop-opacity="0.84"/>
      <stop offset="1" stop-color="#F97316" stop-opacity="0.08"/>
    </linearGradient>
    <linearGradient id="panelStroke" x1="232" y1="140" x2="812" y2="400" gradientUnits="userSpaceOnUse">
      <stop offset="0" stop-color="#A7FFF2" stop-opacity="0.8"/>
      <stop offset="0.52" stop-color="#7ED0FF" stop-opacity="0.36"/>
      <stop offset="1" stop-color="#FFB37C" stop-opacity="0.44"/>
    </linearGradient>
    <linearGradient id="titleFill" x1="276" y1="178" x2="784" y2="330" gradientUnits="userSpaceOnUse">
      <stop offset="0" stop-color="#F5FBFF"/>
      <stop offset="0.5" stop-color="#D2FFF9"/>
      <stop offset="1" stop-color="#FFD7B8"/>
    </linearGradient>
    <filter id="blurSoft" x="-200" y="-200" width="2000" height="920" filterUnits="userSpaceOnUse" color-interpolation-filters="sRGB">
      <feGaussianBlur stdDeviation="44"/>
    </filter>
    <filter id="glow" x="-200" y="-200" width="2000" height="920" filterUnits="userSpaceOnUse" color-interpolation-filters="sRGB">
      <feGaussianBlur stdDeviation="12" result="blur"/>
      <feMerge>
        <feMergeNode in="blur"/>
        <feMergeNode in="SourceGraphic"/>
      </feMerge>
    </filter>
    <filter id="shadow" x="-200" y="-200" width="2000" height="920" filterUnits="userSpaceOnUse" color-interpolation-filters="sRGB">
      <feDropShadow dx="0" dy="22" stdDeviation="22" flood-color="#020613" flood-opacity="0.6"/>
    </filter>
    <clipPath id="planetClip">
      <circle cx="1192" cy="246" r="126"/>
    </clipPath>
  </defs>

  <rect x="28" y="26" width="1544" height="468" rx="34" fill="url(#bg)"/>
  <rect x="28" y="26" width="1544" height="468" rx="34" stroke="#FFFFFF" stroke-opacity="0.08" stroke-width="2"/>

  <g filter="url(#blurSoft)">
    <ellipse cx="462" cy="194" rx="328" ry="176" fill="url(#nebulaTeal)"/>
    <ellipse cx="1294" cy="196" rx="268" ry="182" fill="url(#nebulaOrange)"/>
    <ellipse cx="1162" cy="370" rx="316" ry="86" fill="#0B1229" fill-opacity="0.9"/>
  </g>

  <path d="M74 415C256 360 392 410 536 392C698 372 756 312 954 320C1127 327 1256 394 1526 434" stroke="#6AE7DA" stroke-opacity="0.18" stroke-width="2"/>
  <path d="M108 444C268 394 394 441 556 425C714 410 812 356 990 363C1168 370 1328 431 1489 453" stroke="#FFFFFF" stroke-opacity="0.08" stroke-width="2"/>
  <path d="M968 124C1126 88 1249 92 1401 141" stroke="#DDF9FF" stroke-opacity="0.16" stroke-width="2"/>

  <g opacity="0.9">
    <circle cx="178" cy="114" r="2.3" fill="#F8FCFF"/>
    <circle cx="232" cy="87" r="1.5" fill="#9AEDEB"/>
    <circle cx="304" cy="120" r="1.8" fill="#F8FCFF"/>
    <circle cx="372" cy="92" r="1.6" fill="#FFD9BF"/>
    <circle cx="486" cy="86" r="1.7" fill="#F8FCFF"/>
    <circle cx="540" cy="126" r="2" fill="#9AEDEB"/>
    <circle cx="692" cy="110" r="1.4" fill="#F8FCFF"/>
    <circle cx="768" cy="72" r="1.9" fill="#F8FCFF"/>
    <circle cx="862" cy="118" r="1.6" fill="#FFD9BF"/>
    <circle cx="982" cy="98" r="1.6" fill="#F8FCFF"/>
    <circle cx="1086" cy="72" r="2.2" fill="#9AEDEB"/>
    <circle cx="1264" cy="92" r="1.8" fill="#F8FCFF"/>
    <circle cx="1386" cy="116" r="1.5" fill="#F8FCFF"/>
    <circle cx="1448" cy="88" r="2" fill="#FFD9BF"/>
    <circle cx="1478" cy="144" r="1.5" fill="#9AEDEB"/>
    <circle cx="1324" cy="170" r="1.2" fill="#F8FCFF"/>
    <circle cx="1176" cy="88" r="1.3" fill="#F8FCFF"/>
  </g>

  <g filter="url(#shadow)">
    <rect x="168" y="118" width="664" height="286" rx="28" fill="#0B1228" fill-opacity="0.42"/>
    <rect x="168" y="118" width="664" height="286" rx="28" stroke="url(#panelStroke)" stroke-opacity="0.9"/>
  </g>

  <rect x="196" y="146" width="152" height="34" rx="17" fill="#0F1D3A" fill-opacity="0.84" stroke="#6CE8DC" stroke-opacity="0.34"/>
  <circle cx="223" cy="163" r="5" fill="#6CE8DC"/>
  <circle cx="241" cy="163" r="5" fill="#9EEBFF"/>
  <circle cx="259" cy="163" r="5" fill="#FFB07B"/>
  <text x="286" y="168" fill="#D8F7FF" fill-opacity="0.88" font-family="Arial, Helvetica, sans-serif" font-size="14" font-weight="700" letter-spacing="2.8">ORBITAL PROFILE</text>

  <text x="196" y="244" fill="url(#titleFill)" font-family="Arial, Helvetica, sans-serif" font-size="74" font-weight="800" letter-spacing="2">NGUYEN</text>
  <text x="196" y="320" fill="url(#titleFill)" font-family="Arial, Helvetica, sans-serif" font-size="74" font-weight="800" letter-spacing="2">THE NAM</text>
  <text x="198" y="368" fill="#D7E8F6" fill-opacity="0.92" font-family="Arial, Helvetica, sans-serif" font-size="28" font-weight="600" letter-spacing="0.4">
    Full-stack builder  •  UI/UX learner  •  Dark
  </text>

  <g filter="url(#glow)">
    <ellipse cx="1190" cy="246" rx="248" ry="42" transform="rotate(-9 1190 246)" fill="url(#ringGradient)" fill-opacity="0.34"/>
  </g>
  <ellipse cx="1190" cy="246" rx="220" ry="27" transform="rotate(-9 1190 246)" stroke="url(#ringGradient)" stroke-width="10" stroke-linecap="round" stroke-opacity="0.82"/>

  <g filter="url(#glow)">
    <circle cx="1192" cy="246" r="126" fill="url(#planetFill)"/>
  </g>
  <circle cx="1192" cy="246" r="126" fill="url(#planetFill)"/>

  <g clip-path="url(#planetClip)">
    <ellipse cx="1100" cy="164" rx="88" ry="54" fill="#FFFFFF" fill-opacity="0.24"/>
    <ellipse cx="1218" cy="304" rx="156" ry="124" fill="url(#planetShadow)"/>
    <path d="M1074 284C1128 250 1206 236 1284 242" stroke="#B8FFF8" stroke-opacity="0.24" stroke-width="10" stroke-linecap="round"/>
    <path d="M1082 206C1130 172 1210 160 1278 170" stroke="#E9FFFD" stroke-opacity="0.22" stroke-width="8" stroke-linecap="round"/>
  </g>

  <ellipse cx="1190" cy="246" rx="220" ry="27" transform="rotate(-9 1190 246)" stroke="#EAFDFF" stroke-opacity="0.68" stroke-width="4" stroke-linecap="round" stroke-dasharray="10 14"/>
  <path d="M974 278C1058 254 1126 246 1202 248" stroke="#F7FFFF" stroke-opacity="0.9" stroke-width="8" stroke-linecap="round"/>
  <path d="M1224 248C1292 250 1352 258 1408 278" stroke="#F7FFFF" stroke-opacity="0.36" stroke-width="8" stroke-linecap="round"/>

  <circle cx="1414" cy="326" r="28" fill="#FFD6B9" fill-opacity="0.18" stroke="#FFC086" stroke-opacity="0.5"/>
  <circle cx="1414" cy="326" r="10" fill="#FFD1A8"/>
  <circle cx="956" cy="188" r="8" fill="#89FFF2"/>
  <circle cx="956" cy="188" r="18" fill="#89FFF2" fill-opacity="0.14"/>

  <rect x="170" y="414" width="202" height="30" rx="15" fill="#091426" fill-opacity="0.86" stroke="#6CE8DC" stroke-opacity="0.22"/>
  <text x="196" y="434" fill="#D9EEF8" fill-opacity="0.84" font-family="Arial, Helvetica, sans-serif" font-size="13" font-weight="700" letter-spacing="2.2">SOFTWARE ENGINEERING</text>
</svg>
